<svg id="Layer_5" enable-background="new 0 0 64 64" height="512" viewBox="0 0 64 64" width="512" xmlns="http://www.w3.org/2000/svg"><path d="m31.449 20.328c-.056.223.038.387.098.464.06.078.196.208.426.208.219 0 .415-.131.499-.333l4.028-9.667h-5.118l2-4h-2.689l-2.25 6h4.838z"/><path d="m19 23h7.454l6.682 7.637c.202.23.494.363.801.363.586 0 1.063-.478 1.063-1.063v-6.937h10c1.654 0 3-1.346 3-3v-14c0-1.654-1.346-3-3-3h-26c-1.654 0-3 1.346-3 3v14c0 1.654 1.346 3 3 3zm25-12h2v2h-2zm0 4h2v2h-2zm0 4h2v2h-2zm-14.693-14h7.311l-2 4h4.882l-5.182 12.437c-.396.95-1.316 1.563-2.345 1.563-.788 0-1.518-.356-2.003-.977-.484-.621-.653-1.416-.462-2.18l1.211-4.843h-5.162zm-11.307 0h2v2h-2zm0 4h2v2h-2zm0 4h2v2h-2z"/><path d="m47 43c-.936 0-1.85.096-2.735.272l2.735 3.192 2.735-3.191c-.885-.177-1.799-.273-2.735-.273z"/><path d="m51.067 35c-1.55 0-3.051-.454-4.342-1.314l-.635-.423c-1.388 1.126-3.107 1.737-4.919 1.737h-.171c0 3.309 2.691 6 6 6s6-2.691 6-6z"/><path d="m46 50.135v6.865h2v-6.865l-1-.833z"/><path d="m41.353 32.991c1.488-.046 2.882-.641 3.94-1.698l.58-.58 1.961 1.309c.961.639 2.08.978 3.233.978h1.583c-.826-2.327-3.043-4-5.65-4-2.603 0-4.818 1.669-5.647 3.991z"/><path d="m41.211 44.268.613 6.743 3.758-3.131-3.427-3.998c-.321.119-.636.246-.944.386z"/><path d="m52.789 44.268c-.308-.141-.624-.267-.944-.386l-3.427 3.998 3.758 3.131z"/><path d="m14 47.974v13.026h6v-13.026c-.838.635-1.87 1.026-3 1.026s-2.162-.391-3-1.026zm4 9.026h-2v-2h2zm0-4h-2v-2h2z"/><path d="m14 43.332v.668c0 1.654 1.346 3 3 3s3-1.346 3-3v-.668c-.968-.212-1.97-.332-3-.332s-2.032.12-3 .332z"/><path d="m22 43.939v.061 7.75l2.801-2.101-2.02-5.385c-.256-.117-.517-.224-.781-.325z"/><path d="m22.422 35c-1.782 0-3.509-.522-4.993-1.512l-.429-.286-.43.286c-1.484.99-3.21 1.512-4.992 1.512h-.578c0 3.309 2.691 6 6 6s6-2.691 6-6z"/><path d="m22 61h1.246l1.565-5.477-2.811-1.405z"/><path d="m54.702 45.321-.879 9.667-3.823-3.186v7.198h-6v-7.198l-3.823 3.186-.879-9.667c-3.79 2.508-6.298 6.804-6.298 11.679v4h28v-4c0-4.875-2.508-9.171-6.298-11.679z"/><path d="m25.543 45.934 1.656 4.417-3.305 2.479 3.295 1.647-1.863 6.523h5.674v-4c0-4.502-2.145-8.504-5.457-11.066z"/><path d="m10.105 52.829-3.305-2.479 1.656-4.417c-3.311 2.563-5.456 6.565-5.456 11.067v4h5.674l-1.864-6.523z"/><path d="m10.754 61h1.246v-6.882l-2.811 1.405z"/><path d="m15.461 31.824 1.539-1.026 1.539 1.026c1.154.77 2.497 1.176 3.883 1.176h.228c-.826-2.327-3.043-4-5.65-4s-4.824 1.673-5.65 4h.228c1.386 0 2.729-.406 3.883-1.176z"/><path d="m9.199 49.649 2.801 2.101v-7.75-.061c-.264.101-.525.208-.781.325z"/></svg>