<svg height="512" viewBox="0 0 192 192" width="512" xmlns="http://www.w3.org/2000/svg"><g id="_08-honest" data-name="08-honest"><path d="m191.723 84.327c-1.362-13.9-7.531-25.991-17.369-34.056-16.388-13.437-45.183-16.402-78.354 13.461-33.17-29.863-61.965-26.9-78.354-13.461-9.838 8.065-16.006 20.16-17.369 34.056-1.388 14.173 2.523 28.982 11.006 41.71 20.183 30.276 78.296 63.563 80.76 64.963a8 8 0 0 0 7.914 0c2.464-1.4 60.576-34.689 80.761-64.965 8.482-12.726 12.394-27.535 11.005-41.708zm-24.318 32.835c-15.28 22.92-58.144 49.67-71.406 57.606-13.261-7.932-56.107-34.661-71.4-57.606-14-21.006-9.373-44.215 3.2-54.518a27.093 27.093 0 0 1 17.6-6.123c13.366 0 29.285 8.232 44.952 23.9a8 8 0 0 0 11.314 0c23.406-23.4 47.373-30.219 62.554-17.775 12.559 10.301 17.19 33.51 3.186 54.516z"/><path d="m88 116.687-10.343-10.344-11.314 11.314 16 16a8 8 0 0 0 11.314 0l32-32-11.314-11.314z"/></g></svg>